<svg version="1.1" xmlns="http://www.w3.org/2000/svg" viewBox="-272.2 -1758.825 6235.38386593587 3208.65"><desc>Created with Snap</desc><defs><linearGradient x1="-272.2" y1="-1758.825" x2="5963.18386593587" y2="-1758.825" gradientUnits="userSpaceOnUse" id="linearGradientSkyq3tlo66qv"><stop offset="0%" stop-color="#b35654"></stop><stop offset="100%" stop-color="#f5928d"></stop></linearGradient></defs><g><rect x="-272.2" y="-1758.825" width="6235.38386593587" height="3208.65" fill="url('#linearGradientSkyq3tlo66qv')"></rect><g transform="matrix(34.1452,0,0,34.1452,2634.5009,-1878.8668)"><g><path d="M74.265,60.41c0.964,2.929,1.401,5.966,1.261,9.015c2.584-0.989,5.013-2.49,7.095-4.572c0.244-0.244,0.41-0.527,0.637-0.78   c0.018-0.341,0.105-0.659,0.105-1.004c0-2.924-0.646-5.691-1.764-8.203C79.522,57.139,77.045,59.022,74.265,60.41z" fill="#292929" style=""></path><path d="M54.863,81.605c2.509,1.112,5.276,1.759,8.2,1.759c0.349,0,0.664-0.085,1.004-0.103c0.253-0.227,0.541-0.393,0.781-0.637   c2.08-2.085,3.585-4.516,4.572-7.104c-3.049,0.14-6.086-0.292-9.01-1.257C59.022,77.049,57.137,79.528,54.863,81.605z" fill="#292929" style=""></path><path d="M40.588,74.265c-2.925,0.965-5.965,1.396-9.013,1.257c0.988,2.588,2.49,5.023,4.573,7.104   c0.242,0.244,0.528,0.41,0.779,0.637c0.339,0.018,0.661,0.103,1.003,0.103c2.926,0,5.691-0.646,8.202-1.759   C43.861,79.528,41.976,77.049,40.588,74.265z" fill="#292929" style=""></path><path d="M26.731,60.41c-2.781-1.388-5.26-3.271-7.337-5.545c-1.112,2.512-1.758,5.279-1.758,8.203c0,0.345,0.085,0.663,0.1,1.004   c0.229,0.253,0.395,0.536,0.639,0.78c2.082,2.082,4.515,3.583,7.098,4.572C25.333,66.376,25.767,63.339,26.731,60.41z" fill="#292929" style=""></path><path d="M26.731,40.592c-0.964-2.929-1.398-5.966-1.259-9.016c-2.583,0.989-5.014,2.491-7.098,4.572   c-0.244,0.245-0.41,0.528-0.639,0.781c-0.015,0.341-0.1,0.659-0.1,1.004c0,2.924,0.646,5.69,1.76,8.205   C21.471,43.863,23.95,41.979,26.731,40.592z" fill="#292929" style=""></path><path d="M46.132,19.397c-2.511-1.114-5.275-1.76-8.202-1.76c-0.342,0-0.664,0.084-1.003,0.102   c-0.251,0.228-0.537,0.393-0.779,0.638c-2.083,2.08-3.585,4.515-4.573,7.103c3.048-0.14,6.088,0.293,9.013,1.257   C41.976,23.952,43.861,21.475,46.132,19.397z" fill="#292929" style=""></path><path d="M60.41,26.736c2.924-0.964,5.961-1.396,9.01-1.257c-0.99-2.588-2.492-5.017-4.572-7.103   c-0.24-0.245-0.528-0.41-0.781-0.638c-0.34-0.018-0.659-0.102-1.004-0.102c-2.924,0-5.691,0.646-8.2,1.76   C57.137,21.475,59.022,23.952,60.41,26.736z" fill="#292929" style=""></path><path d="M82.621,36.148c-2.082-2.081-4.511-3.583-7.095-4.572c0.14,3.05-0.297,6.087-1.261,9.016   c2.78,1.388,5.257,3.271,7.334,5.547c1.117-2.515,1.764-5.281,1.764-8.205c0-0.345-0.088-0.663-0.105-1.004   C83.031,36.677,82.865,36.394,82.621,36.148z" fill="#292929" style=""></path><path d="M58.228,63.068c0-0.166-0.048-0.319-0.052-0.484c-1.061-0.21-2.09-0.498-3.099-0.834c-0.462,0.921-0.89,1.851-1.469,2.719   c0.113,0.122,0.19,0.267,0.309,0.384c1.143,1.14,2.404,2.069,3.718,2.881C57.993,66.228,58.228,64.683,58.228,63.068z" fill="#292929" style=""></path><path d="M43.362,67.733c1.313-0.812,2.574-1.741,3.715-2.881c0.12-0.117,0.199-0.262,0.312-0.384   c-0.581-0.868-1.008-1.798-1.471-2.719c-1.008,0.336-2.038,0.624-3.1,0.834c-0.002,0.165-0.048,0.318-0.048,0.484   C42.771,64.683,43.006,66.228,43.362,67.733z" fill="#292929" style=""></path><path d="M36.148,53.922c-1.139,1.14-2.068,2.4-2.88,3.717c1.503,0.355,3.051,0.59,4.663,0.59c0.166,0,0.318-0.044,0.484-0.048   c0.209-1.06,0.495-2.094,0.833-3.102c-0.918-0.463-1.848-0.886-2.716-1.471C36.411,53.726,36.269,53.805,36.148,53.922z" fill="#292929" style=""></path><path d="M38.415,42.821c-0.166-0.006-0.319-0.05-0.484-0.05c-1.612,0-3.159,0.236-4.663,0.591c0.812,1.318,1.739,2.578,2.88,3.717   c0.12,0.118,0.262,0.196,0.384,0.314c0.868-0.583,1.797-1.008,2.716-1.471C38.91,44.916,38.625,43.881,38.415,42.821z" fill="#292929" style=""></path><path d="M42.771,37.934c0,0.166,0.046,0.318,0.048,0.484c1.062,0.21,2.092,0.498,3.1,0.834c0.462-0.921,0.89-1.851,1.471-2.719   c-0.113-0.123-0.192-0.267-0.312-0.385c-1.141-1.139-2.402-2.066-3.715-2.879C43.006,34.774,42.771,36.319,42.771,37.934z" fill="#292929" style=""></path><path d="M57.635,33.27c-1.314,0.812-2.575,1.74-3.718,2.879c-0.118,0.118-0.195,0.262-0.309,0.385   c0.579,0.868,1.007,1.798,1.469,2.719c1.008-0.336,2.038-0.624,3.099-0.834c0.004-0.166,0.052-0.318,0.052-0.484   C58.228,36.319,57.993,34.774,57.635,33.27z" fill="#292929" style=""></path><path d="M63.063,42.771c-0.166,0-0.314,0.044-0.48,0.05c-0.209,1.06-0.498,2.095-0.838,3.102c0.921,0.463,1.851,0.888,2.719,1.471   c0.122-0.118,0.266-0.196,0.384-0.314c1.139-1.139,2.067-2.398,2.883-3.717C66.226,43.008,64.678,42.771,63.063,42.771z" fill="#292929" style=""></path><path d="M48.074,49.493c-0.035,0.676-0.035,1.339,0,2.012c0.452,0.502,0.921,0.969,1.42,1.423c0.671,0.034,1.335,0.034,2.007,0   c0.5-0.454,0.972-0.926,1.423-1.423c0.035-0.673,0.033-1.336,0-2.008c-0.451-0.502-0.921-0.969-1.42-1.423   c-0.673-0.035-1.34-0.035-2.012,0C48.995,48.528,48.524,48.995,48.074,49.493z" fill="#292929" style=""></path><path d="M64.464,53.608c-0.868,0.585-1.798,1.008-2.719,1.471c0.34,1.008,0.628,2.042,0.838,3.102   c0.166,0.004,0.314,0.048,0.48,0.048c1.615,0,3.163-0.234,4.668-0.59c-0.816-1.316-1.745-2.577-2.883-3.717   C64.73,53.805,64.586,53.726,64.464,53.608z" fill="#292929" style=""></path><path d="M72.271,55.926c2.583-1.327,4.827-3.173,6.615-5.425c-1.788-2.252-4.031-4.098-6.615-5.425   c-1.091,1.929-2.357,3.784-3.998,5.425C69.914,52.142,71.179,53.996,72.271,55.926z" fill="#292929" style=""></path><path d="M62.138,31.245c0.585,2.133,0.925,4.367,0.925,6.688c2.322,0,4.555,0.341,6.689,0.93c0.868-2.745,1.143-5.603,0.82-8.436   C67.74,30.104,64.879,30.375,62.138,31.245z" fill="#292929" style=""></path><path d="M50.498,22.11c-2.253,1.794-4.099,4.033-5.424,6.616c1.927,1.096,3.782,2.361,5.424,4.002   c1.644-1.641,3.498-2.906,5.426-4.002C54.597,26.144,52.752,23.904,50.498,22.11z" fill="#292929" style=""></path><path d="M37.931,37.934c0-2.321,0.34-4.556,0.927-6.688c-2.74-0.87-5.601-1.141-8.432-0.817c-0.323,2.833-0.05,5.69,0.817,8.436   C33.377,38.274,35.612,37.934,37.931,37.934z" fill="#292929" style=""></path><path d="M22.108,50.501c1.794,2.252,4.034,4.098,6.618,5.425c1.091-1.93,2.356-3.784,3.999-5.425   c-1.643-1.641-2.908-3.496-4.001-5.425C26.143,46.403,23.902,48.249,22.108,50.501z" fill="#292929" style=""></path><path d="M38.858,69.757c-0.587-2.133-0.927-4.367-0.927-6.688c-2.319,0-4.553-0.341-6.688-0.93   c-0.868,2.745-1.14,5.604-0.817,8.436C33.257,70.896,36.118,70.627,38.858,69.757z" fill="#292929" style=""></path><path d="M50.498,78.891c2.255-1.793,4.1-4.032,5.426-6.616c-1.929-1.095-3.782-2.36-5.426-4c-1.642,1.64-3.497,2.905-5.424,4   C46.401,74.858,48.245,77.098,50.498,78.891z" fill="#292929" style=""></path><path d="M63.063,63.068c0,2.321-0.34,4.556-0.925,6.688c2.741,0.87,5.602,1.139,8.435,0.817c0.323-2.832,0.048-5.695-0.82-8.436   C67.618,62.728,65.385,63.068,63.063,63.068z" fill="#292929" style=""></path><path d="M87.425,44.026c-0.571,2.304-1.457,4.476-2.614,6.475c1.157,1.999,2.043,4.177,2.614,6.475   C88.844,52.771,88.844,48.231,87.425,44.026z" fill="#292929" style=""></path><path d="M81.233,29.05c-1.981-4.041-5.244-7.301-9.286-9.282c1.249,2.063,2.147,4.268,2.745,6.541   C76.966,26.907,79.165,27.802,81.233,29.05z" fill="#292929" style=""></path><path d="M56.971,13.576c-4.204-1.418-8.742-1.418-12.947,0c2.3,0.571,4.473,1.453,6.473,2.614   C52.5,15.029,54.671,14.147,56.971,13.576z" fill="#292929" style=""></path><path d="M29.047,19.768c-4.042,1.981-7.301,5.241-9.284,9.282c2.066-1.248,4.268-2.143,6.541-2.741   C26.904,24.035,27.798,21.831,29.047,19.768z" fill="#292929" style=""></path><path d="M13.571,56.973c0.574-2.3,1.458-4.473,2.616-6.472c-1.159-1.999-2.04-4.171-2.616-6.472   C12.158,48.231,12.158,52.771,13.571,56.973z" fill="#292929" style=""></path><path d="M19.765,71.952c1.981,4.041,5.24,7.297,9.279,9.282c-1.248-2.068-2.141-4.269-2.741-6.542   C24.031,74.095,21.829,73.2,19.765,71.952z" fill="#292929" style=""></path><path d="M44.024,87.426c4.205,1.418,8.746,1.418,12.947,0c-2.3-0.572-4.472-1.453-6.474-2.614   C48.498,85.973,46.324,86.854,44.024,87.426z" fill="#292929" style=""></path><path d="M71.952,81.234c4.037-1.985,7.3-5.241,9.281-9.282c-2.068,1.248-4.267,2.143-6.541,2.74   C74.095,76.966,73.2,79.166,71.952,81.234z" fill="#292929" style=""></path></g><desc>Created with Snap</desc><defs></defs></g><g><g transform="matrix(0.5,0,0,-0.5,0,0)"><path d="M784 119Q719 23 640 -30Q561 -82 467 -82Q372 -82 298 -37Q224 9 173 92Q123 176 96 293Q70 411 70 555Q70 657 91 764Q112 871 152 971Q193 1072 251 1161Q309 1251 383 1317Q457 1384 546 1423Q635 1462 737 1462Q792 1462 840 1444Q888 1427 922 1394Q957 1361 977 1314Q997 1267 997 1208Q997 1152 978 1100Q959 1048 926 1002Q894 956 851 918Q808 880 761 852Q714 825 665 810Q616 795 571 795Q534 795 507 818Q481 842 481 893Q481 904 482 917Q484 930 487 941Q490 952 494 959Q498 967 504 967Q509 967 513 963Q518 960 525 956Q533 953 546 949Q559 946 582 946Q621 946 665 967Q710 988 748 1023Q786 1058 811 1103Q836 1149 836 1198Q836 1216 829 1236Q823 1256 808 1273Q794 1290 770 1301Q746 1313 711 1313Q647 1313 587 1282Q527 1251 475 1196Q423 1142 379 1069Q336 996 305 912Q274 828 257 737Q240 646 240 557Q240 446 257 357Q275 269 306 207Q337 145 379 111Q422 78 471 78Q523 78 567 99Q611 121 646 157Q681 193 707 240Q733 287 750 337Q768 387 777 436Q786 486 786 528Q786 544 784 564Q782 585 782 596Q782 611 787 619Q793 627 802 631Q811 635 823 636Q835 637 848 637Q862 637 880 631Q898 625 914 614Q931 604 942 590Q954 576 954 559Q946 476 944 401Q942 327 942 250Q942 178 943 100Q944 22 944 -72Q973 -67 1000 -65Q1028 -63 1053 -61Q1089 -59 1099 -84Q1110 -108 1102 -139Q1095 -170 1074 -196Q1053 -222 1026 -223Q1003 -223 982 -224Q962 -225 940 -227Q937 -285 931 -344Q925 -403 911 -459Q898 -514 876 -563Q855 -611 823 -647Q791 -683 746 -704Q701 -725 641 -725Q589 -725 546 -707Q504 -688 474 -656Q444 -623 428 -579Q412 -535 412 -483Q412 -405 444 -345Q476 -284 528 -238Q581 -192 649 -160Q717 -128 788 -106L788 -86Q788 -20 786 31Q784 82 784 119ZM645 -567Q679 -567 703 -542Q728 -517 744 -474Q760 -431 769 -376Q778 -320 782 -258Q680 -290 625 -346Q571 -402 571 -479Q571 -526 592 -547Q614 -567 645 -567ZM1702 78Q1733 78 1755 100Q1778 122 1794 155Q1811 188 1821 226Q1832 265 1839 299Q1846 331 1859 345Q1873 360 1889 360Q1901 360 1913 352Q1926 345 1936 333Q1947 321 1953 306Q1960 291 1960 276Q1960 274 1960 271Q1960 268 1958 262Q1945 211 1922 155Q1900 99 1865 52Q1830 5 1780 -26Q1731 -57 1665 -57Q1611 -57 1571 -34Q1531 -11 1508 27Q1477 -8 1433 -33Q1390 -57 1332 -57Q1272 -57 1226 -33Q1181 -9 1150 32Q1119 74 1103 130Q1088 187 1088 252Q1088 380 1129 482Q1170 584 1238 655Q1306 727 1393 765Q1481 803 1575 803Q1617 803 1643 780Q1669 757 1669 717Q1669 691 1663 680Q1658 670 1643 670Q1629 670 1614 672Q1599 674 1583 674Q1525 674 1465 648Q1405 623 1356 570Q1308 518 1277 437Q1246 357 1246 246Q1246 165 1277 121Q1308 78 1362 78Q1404 78 1432 109Q1460 141 1477 184L1477 500Q1477 515 1475 525Q1474 535 1472 542Q1471 549 1470 554Q1469 560 1469 565Q1469 581 1484 590Q1500 600 1522 600Q1573 600 1603 573Q1633 547 1633 510L1633 172Q1633 155 1637 138Q1641 122 1649 108Q1657 95 1670 86Q1684 78 1702 78ZM1663 963Q1686 961 1714 960Q1738 958 1772 957Q1806 957 1848 956L1848 1303Q1848 1325 1844 1338Q1841 1351 1837 1358Q1834 1366 1830 1370Q1827 1375 1827 1380Q1827 1386 1833 1390Q1839 1394 1849 1397Q1859 1400 1870 1401Q1882 1403 1893 1403Q1944 1403 1973 1376Q2003 1350 2003 1313L2003 954Q2097 954 2201 956Q2306 958 2411 963Q2425 978 2433 974Q2442 970 2444 955Q2447 940 2445 918Q2443 896 2437 875Q2431 855 2420 840Q2410 825 2397 825Q2274 822 2179 821Q2085 821 2003 821L2003 172Q2003 122 2022 100Q2041 78 2073 78Q2104 78 2126 100Q2149 122 2165 155Q2182 188 2192 226Q2203 265 2210 299Q2216 331 2230 345Q2244 360 2259 360Q2271 360 2284 352Q2297 345 2307 333Q2318 321 2324 306Q2331 291 2331 276Q2331 274 2331 271Q2331 268 2329 262Q2316 211 2293 155Q2271 99 2235 52Q2200 5 2151 -26Q2102 -57 2036 -57Q1995 -57 1960 -45Q1926 -32 1901 -5Q1876 23 1862 66Q1848 109 1848 170L1848 821Q1814 821 1787 821Q1761 822 1743 823Q1722 824 1706 825Q1682 825 1663 846Q1645 868 1637 894Q1630 920 1635 941Q1641 963 1663 963ZM2219 33L2219 1262Q2219 1284 2215 1297Q2212 1310 2208 1317Q2205 1325 2201 1329Q2198 1334 2198 1339Q2198 1345 2204 1349Q2210 1353 2220 1356Q2230 1359 2241 1360Q2253 1362 2264 1362Q2315 1362 2344 1335Q2374 1309 2374 1272L2374 600Q2395 643 2419 680Q2444 717 2472 744Q2501 772 2533 787Q2566 803 2604 803Q2655 803 2688 784Q2721 765 2740 735Q2759 705 2766 668Q2774 631 2774 596L2774 172Q2774 165 2775 149Q2776 134 2781 118Q2786 102 2796 90Q2807 78 2827 78Q2858 78 2880 100Q2903 122 2919 155Q2936 188 2946 226Q2957 265 2964 299Q2970 330 2982 344Q2995 358 3009 359Q3024 361 3039 352Q3054 343 3065 328Q3076 314 3081 296Q3087 278 3083 262Q3069 211 3046 155Q3024 99 2989 52Q2954 5 2905 -26Q2856 -57 2790 -57Q2749 -57 2717 -42Q2686 -26 2663 0Q2641 26 2629 61Q2618 96 2618 135L2618 551Q2618 575 2617 596Q2616 617 2611 633Q2607 649 2598 658Q2590 668 2575 668Q2553 668 2521 638Q2489 608 2458 560Q2427 512 2403 451Q2380 391 2374 330L2374 31Q2374 16 2373 0Q2373 -15 2367 -28Q2362 -40 2350 -49Q2339 -57 2317 -57Q2302 -57 2284 -54Q2267 -50 2252 -41Q2238 -31 2228 -14Q2219 4 2219 33ZM3444 596Q3444 539 3424 479Q3405 419 3366 365Q3328 312 3271 269Q3215 227 3141 205Q3151 179 3167 155Q3184 132 3207 115Q3230 98 3260 88Q3291 78 3331 78Q3391 78 3434 100Q3477 123 3506 160Q3536 197 3554 243Q3572 289 3581 336Q3588 370 3609 381Q3631 393 3653 387Q3676 381 3692 361Q3709 342 3706 315Q3702 284 3692 244Q3683 204 3664 163Q3645 122 3615 82Q3586 43 3543 12Q3500 -19 3442 -38Q3384 -57 3309 -57Q3239 -57 3173 -30Q3108 -2 3057 49Q3007 101 2976 176Q2946 252 2946 348Q2946 445 2973 528Q3000 612 3044 673Q3088 734 3144 768Q3200 803 3259 803Q3302 803 3336 788Q3371 773 3395 745Q3419 718 3431 680Q3444 642 3444 596ZM3114 354Q3114 345 3115 336Q3116 327 3116 317Q3154 335 3185 363Q3216 391 3238 427Q3260 463 3272 505Q3284 548 3284 594Q3284 628 3272 647Q3261 666 3241 666Q3216 666 3196 649Q3177 632 3162 604Q3148 577 3138 542Q3129 508 3123 473Q3117 438 3115 406Q3113 375 3114 354ZM4027 -57Q3991 -57 3953 -46Q3916 -35 3885 -8Q3855 19 3835 63Q3816 108 3816 176Q3816 275 3842 385Q3869 496 3919 629L3763 629L3740 629Q3739 599 3736 553Q3734 507 3728 455Q3722 403 3712 350Q3703 297 3689 252Q3679 220 3657 215Q3636 210 3615 222Q3594 235 3581 259Q3568 283 3575 309Q3583 340 3589 384Q3595 429 3598 478Q3602 528 3604 577Q3606 627 3607 666Q3569 687 3544 719Q3519 752 3519 797Q3519 818 3527 835Q3536 853 3550 865Q3564 878 3583 884Q3602 891 3622 891Q3640 891 3659 886Q3679 881 3696 868Q3714 855 3728 834Q3742 813 3751 782Q3776 779 3793 777Q3811 776 3823 775Q3835 774 3843 774Q3851 774 3859 774L3966 774Q3975 774 3992 763Q4010 752 4027 734Q4044 717 4055 697Q4067 677 4064 659Q4064 653 4057 630Q4050 607 4040 572Q4030 537 4018 491Q4006 446 3996 396Q3986 346 3979 292Q3972 239 3972 188Q3972 167 3977 147Q3982 127 3992 111Q4002 96 4017 87Q4033 78 4054 78Q4089 78 4114 100Q4139 122 4156 155Q4173 188 4183 226Q4194 265 4201 299Q4207 331 4221 345Q4235 360 4250 360Q4262 360 4275 352Q4288 345 4298 333Q4309 321 4315 306Q4322 291 4322 276Q4322 271 4321 268Q4320 265 4320 262Q4306 211 4283 155Q4261 99 4226 52Q4191 5 4142 -26Q4093 -57 4027 -57ZM4365 1190L4365 606Q4376 627 4386 662Q4397 698 4406 741Q4416 784 4424 831Q4432 878 4438 923Q4444 968 4447 1007Q4451 1047 4451 1075Q4451 1177 4436 1224Q4421 1272 4396 1272Q4388 1272 4382 1264Q4376 1256 4372 1243Q4368 1231 4366 1216Q4365 1202 4365 1190ZM4656 297Q4662 327 4674 340Q4687 354 4701 355Q4716 357 4731 348Q4746 340 4757 326Q4768 312 4773 294Q4779 277 4775 260Q4761 219 4735 164Q4709 109 4669 60Q4629 11 4575 -23Q4521 -57 4451 -57Q4392 -57 4347 -38Q4302 -18 4271 17Q4241 53 4225 102Q4210 152 4210 213L4210 1145Q4210 1202 4224 1250Q4239 1299 4264 1333Q4290 1368 4324 1387Q4358 1407 4396 1407Q4441 1407 4472 1390Q4503 1374 4523 1347Q4543 1320 4554 1285Q4566 1250 4571 1213Q4576 1177 4577 1141Q4578 1106 4578 1077Q4578 1002 4564 919Q4550 837 4528 757Q4507 677 4481 603Q4456 530 4432 473Q4409 416 4390 380Q4372 344 4365 338L4365 219Q4365 157 4391 117Q4417 78 4474 78Q4509 78 4539 99Q4570 121 4593 153Q4617 186 4633 224Q4649 263 4656 297ZM5388 299Q5397 331 5409 345Q5421 360 5437 360Q5449 360 5462 352Q5475 345 5485 333Q5496 321 5502 306Q5509 291 5509 276Q5509 274 5509 268Q5509 262 5507 256Q5481 167 5446 98Q5412 30 5372 -24Q5333 -78 5291 -121Q5249 -163 5207 -199L5207 -553Q5207 -634 5188 -690Q5170 -745 5140 -780Q5110 -814 5072 -829Q5034 -844 4995 -844Q4952 -844 4916 -826Q4880 -807 4853 -775Q4827 -743 4812 -700Q4798 -657 4798 -608Q4798 -530 4818 -470Q4839 -410 4874 -360Q4909 -310 4955 -267Q5001 -223 5052 -178L5052 82Q5015 20 4966 -20Q4917 -59 4851 -59Q4800 -59 4759 -38Q4719 -17 4691 21Q4663 60 4648 114Q4634 169 4634 236Q4634 317 4645 399Q4657 481 4671 547Q4687 624 4708 696Q4713 709 4715 722Q4718 736 4727 747Q4736 758 4755 765Q4775 772 4816 772Q4854 772 4865 758Q4876 745 4873 727Q4871 709 4861 690Q4852 671 4849 659Q4835 602 4824 555Q4813 508 4805 460Q4798 413 4794 361Q4790 310 4790 246Q4790 162 4814 119Q4839 76 4884 76Q4915 76 4941 99Q4968 122 4989 160Q5011 199 5027 248Q5043 298 5052 352L5052 682Q5052 711 5048 724Q5044 737 5044 748Q5044 763 5059 772Q5075 782 5097 782Q5148 782 5177 755Q5207 729 5207 692L5207 -27Q5263 35 5310 114Q5357 193 5388 299ZM4995 -715Q5019 -715 5031 -695Q5043 -675 5047 -649Q5052 -622 5052 -595Q5052 -568 5052 -553L5052 -334Q5002 -384 4971 -447Q4941 -510 4941 -602Q4941 -650 4955 -683Q4970 -715 4995 -715Z" fill="#292929" style=""></path></g></g></g></svg>